<svg xmlns="http://www.w3.org/2000/svg" xmlns:xlink="http://www.w3.org/1999/xlink" viewBox="0 0 566.93 566.93">
    <g id="graphics">
        <path class="cls-2"
              d="M444.23,245.26a114.16,114.16,0,0,0-57.63-60.21,111.67,111.67,0,0,0-42.67-10.29l-206.94,0v227.6H343.5l.43,0A111.62,111.62,0,0,0,386.6,392a114.25,114.25,0,0,0,57.63-60.21,114.56,114.56,0,0,0,0-86.56ZM425.42,324A93.82,93.82,0,0,1,378,373.57a90.87,90.87,0,0,1-34.92,8.4H157.36V236.7H343.25a52.55,52.55,0,0,1,18.95,5.06,51.15,51.15,0,0,1,15.35,11.33,53.64,53.64,0,0,1,10.28,16.13,52.28,52.28,0,0,1,.13,38.51,52.89,52.89,0,0,1-10,16,51.68,51.68,0,0,1-15.09,11.47,49.47,49.47,0,0,1-18.56,5.19H198.94v-62H340.48a10.4,10.4,0,1,1,0,20.8H219.73v20.43l123.33-.26a29.17,29.17,0,0,0,19.86-9.87,30.16,30.16,0,0,0,7.86-20.79,29.78,29.78,0,0,0-5.73-18,32.22,32.22,0,0,0-14.79-11.33,24.6,24.6,0,0,0-6.27-1.6q-2.81-.25-8.13-.26H178.15V361.18H343.06a69.86,69.86,0,0,0,26.79-6.8,75.21,75.21,0,0,0,21.72-15.73,72.29,72.29,0,0,0,20-50.24,70.92,70.92,0,0,0-5.33-27.33,72.14,72.14,0,0,0-14.66-22.65,75.21,75.21,0,0,0-21.72-15.73,69.67,69.67,0,0,0-26.79-6.79H157.36v-20.8h185.7a91.05,91.05,0,0,1,34.92,8.4,93.82,93.82,0,0,1,47.44,49.58,94.14,94.14,0,0,1,0,70.9Z"/>
    </g>
</svg>