<svg xmlns="http://www.w3.org/2000/svg" xmlns:xlink="http://www.w3.org/1999/xlink" viewBox="0 0 841.89 566.93">
    <defs>
        <style>.cls-1{fill:#1c1d28;}.cls-2{font-size:39.24px;fill:#fff;font-family:DINPro-Medium,
            DINPro;font-weight:500;letter-spacing:0.3em;}.cls-3{letter-spacing:0.24em;}.cls-4{letter-spacing:0.3em;}.cls-5{fill:url(#New_Gradient_Swatch_1);}
        </style>
        <linearGradient id="New_Gradient_Swatch_1" x1="461.92" y1="171.83" x2="372.02" y2="301.36"
                        gradientUnits="userSpaceOnUse">
            <stop offset="0" stop-color="#0fd"/>
            <stop offset="1" stop-color="#00d4ff"/>
        </linearGradient>
    </defs>
    <g id="BG">
        <rect class="cls-1" width="841.89" height="566.93"/>
        <text class="cls-2" transform="translate(199.94 359.7)">DIGI
            <tspan class="cls-3" x="121.75" y="0">T</tspan>
            <tspan class="cls-4" x="153.14" y="0">AL IN</tspan>
            <tspan class="cls-3" x="308.32" y="0">F</tspan>
            <tspan x="340.69" y="0">AMY</tspan>
        </text>
    </g>
    <g id="graphics">
        <path class="cls-5"
              d="M492.7,224.6a52.52,52.52,0,0,0-26.53-27.71,51.3,51.3,0,0,0-19.64-4.74H351.28V296.9h95.25a51.3,51.3,0,0,0,19.64-4.74,52.52,52.52,0,0,0,26.53-27.71,52.7,52.7,0,0,0,0-39.84ZM484,260.84a43.19,43.19,0,0,1-21.84,22.82,41.88,41.88,0,0,1-16.07,3.86H360.66V220.66h85.56a24,24,0,0,1,8.72,2.33A23.71,23.71,0,0,1,462,228.2a25,25,0,0,1,4.73,7.43,23.35,23.35,0,0,1,1.72,9,23.12,23.12,0,0,1-1.66,8.77,24.64,24.64,0,0,1-4.61,7.36,23.79,23.79,0,0,1-6.95,5.28,22.65,22.65,0,0,1-8.54,2.39H379.8V239.84h65.14a4.79,4.79,0,1,1,0,9.57H389.37v9.4l56.76-.12a13.42,13.42,0,0,0,9.14-4.54,13.9,13.9,0,0,0,3.62-9.57,13.68,13.68,0,0,0-2.64-8.28,14.8,14.8,0,0,0-6.81-5.21,10.92,10.92,0,0,0-2.88-.74c-.86-.08-2.11-.12-3.74-.12H370.23V278h75.9a32,32,0,0,0,12.33-3.13,34.54,34.54,0,0,0,10-7.24,33.19,33.19,0,0,0,9.2-23.12,32.79,32.79,0,0,0-2.45-12.58,33.45,33.45,0,0,0-6.75-10.43,34.7,34.7,0,0,0-10-7.23,32,32,0,0,0-12.33-3.13H360.66v-9.57h85.47a41.7,41.7,0,0,1,16.07,3.86A43.19,43.19,0,0,1,484,228.2a43.34,43.34,0,0,1,0,32.64Z"/>
    </g>
</svg>